<svg width="1755" height="226" viewBox="0 0 1755 226" fill="none" xmlns="http://www.w3.org/2000/svg">
<rect width="1754.16" height="226" fill="#FFFDCC"/>
<path d="M1324.72 91.6011C1329.27 91.6011 1333.83 91.5894 1338.38 91.6041C1343.89 91.6217 1346.39 95.6514 1343.64 100.055C1339.21 107.14 1334.78 114.217 1330.34 121.294C1328.56 124.13 1326.4 125.277 1323.66 124.918C1322.07 124.709 1320.81 123.956 1320 122.771C1318.26 120.247 1316.68 117.641 1315.02 115.076C1314.62 114.467 1314.62 114.111 1315.42 113.729C1317.32 112.826 1319.16 111.82 1320.98 110.811C1321.65 110.443 1322.02 110.399 1322.51 111.093C1324.6 114.082 1324.65 114.079 1326.68 110.961C1328.7 107.855 1330.67 104.72 1332.64 101.587C1333.68 99.9369 1333.41 99.4869 1331.39 99.4781C1326.89 99.4604 1322.38 99.4575 1317.88 99.481C1315.86 99.4928 1315.62 99.9016 1316.52 101.581C1317.63 103.652 1317.62 103.649 1315.41 104.814C1313.97 105.57 1312.52 106.296 1311.12 107.114C1310.44 107.514 1310.17 107.384 1309.8 106.779C1308.31 104.349 1306.7 101.981 1305.25 99.5369C1303 95.7602 1305.54 91.7482 1310.25 91.6717C1315.07 91.5923 1319.89 91.6541 1324.72 91.6541C1324.72 91.6335 1324.72 91.6188 1324.72 91.6011Z" fill="#326F9A"/>
<path d="M1302.79 129.58C1301.23 129.58 1299.68 129.554 1298.13 129.592C1297.43 129.61 1297.19 129.421 1297.2 128.766C1297.24 126.71 1297.26 124.648 1297.19 122.592C1297.17 121.739 1297.59 121.621 1298.35 121.671C1302.71 121.956 1301.77 120.827 1300.23 118.447C1298.18 115.294 1296.23 112.091 1294.23 108.917C1293.29 107.435 1292.76 107.414 1291.81 108.891C1289.51 112.473 1287.24 116.071 1284.99 119.68C1283.99 121.28 1284.25 121.633 1286.24 121.674C1288.82 121.727 1288.82 121.727 1288.82 124.095C1288.82 125.565 1288.79 127.036 1288.83 128.504C1288.85 129.216 1288.69 129.571 1287.79 129.56C1284.73 129.516 1281.67 129.645 1278.62 129.519C1274.11 129.333 1271.56 125.283 1273.78 121.692C1278.43 114.156 1283.17 106.664 1288 99.2226C1290.51 95.3606 1295.51 95.4223 1298.17 99.3461C1300.89 103.379 1303.39 107.535 1305.98 111.647C1308.03 114.912 1310.12 118.159 1312.09 121.462C1313.86 124.442 1313.08 127.304 1310.21 128.874C1309.26 129.395 1308.22 129.569 1307.13 129.577C1305.68 129.589 1304.24 129.58 1302.79 129.58Z" fill="#214167"/>
<path d="M1191.96 102.687C1196.67 98.6839 1205.22 100.516 1208.83 104.381C1213.74 109.626 1213.73 116.526 1208.77 121.426C1205.18 124.971 1197.7 127.224 1192.01 122.832C1192.01 123.897 1192.01 124.788 1192.01 125.68C1192.01 129.009 1191.97 132.342 1192.04 135.669C1192.05 136.574 1191.71 136.945 1190.8 137.166C1189.25 137.536 1187.71 137.948 1186.21 138.46C1185.17 138.816 1185.07 138.469 1185.09 137.648C1185.13 135.689 1185.1 133.73 1185.1 131.771C1185.1 121.927 1185.12 112.085 1185.07 102.24C1185.07 101.087 1185.39 100.678 1186.67 100.79C1187.84 100.893 1189.03 100.878 1190.2 100.793C1191.51 100.705 1192.4 100.896 1191.96 102.687ZM1205.52 112.826C1205.52 109.382 1202.54 106.505 1198.97 106.479C1195.21 106.452 1192 109.385 1192.01 112.832C1192.01 116.229 1195.29 119.244 1198.97 119.241C1202.43 119.241 1205.53 116.203 1205.52 112.826Z" fill="#323330"/>
<path d="M1235.51 123.097C1229.8 127.265 1221.77 124.765 1218.5 121.206C1213.85 116.153 1213.83 109.152 1218.51 104.481C1222.16 100.828 1229.47 98.4045 1235.44 102.805C1234.96 100.687 1236.3 100.681 1237.86 100.796C1239.09 100.884 1240.33 100.843 1241.56 100.805C1242.26 100.784 1242.48 101.025 1242.48 101.655C1242.46 109.096 1242.46 116.541 1242.48 123.982C1242.48 124.703 1242.22 124.909 1241.46 124.888C1240.02 124.844 1238.56 124.771 1237.13 124.906C1235.68 125.044 1235.18 124.58 1235.51 123.097ZM1221.91 112.899C1221.92 116.356 1225.06 119.217 1228.88 119.244C1232.23 119.267 1235.43 116.129 1235.43 112.814C1235.42 109.543 1232.28 106.464 1228.95 106.481C1225.03 106.502 1221.91 109.346 1221.91 112.899Z" fill="#333431"/>
<path d="M1245.13 100.817C1247.37 100.817 1249.41 100.875 1251.44 100.793C1252.48 100.752 1252.92 101.09 1253.28 101.952C1255 106.002 1256.8 110.02 1258.57 114.05C1258.79 114.532 1258.9 115.07 1259.42 115.506C1261.45 110.95 1263.47 106.485 1265.4 101.99C1265.8 101.067 1266.31 100.74 1267.41 100.79C1269.37 100.881 1271.35 100.817 1273.58 100.817C1272.39 103.543 1271.29 106.114 1270.15 108.679C1265.91 118.273 1261.65 127.859 1257.44 137.466C1257.03 138.401 1256.58 138.86 1255.4 138.772C1253.91 138.657 1252.39 138.678 1250.9 138.766C1249.59 138.842 1249.34 138.566 1249.88 137.419C1251.66 133.654 1253.3 129.839 1255.06 126.068C1255.44 125.236 1255.44 124.533 1255.07 123.7C1251.99 116.726 1248.96 109.738 1245.91 102.752C1245.65 102.164 1245.43 101.567 1245.13 100.817Z" fill="#333431"/>
<path d="M1092.76 121.5C1085.66 127.101 1078.19 125.139 1074.02 121.418C1069.41 117.318 1068.97 110.22 1073.11 105.302C1075.46 102.499 1078.69 100.987 1082.59 100.682C1086.52 100.373 1089.71 101.888 1092.65 104.052C1092.77 103.852 1092.85 103.779 1092.85 103.699C1093.02 100.867 1093.02 100.893 1096.2 101.09C1096.9 101.135 1097.11 101.332 1097.11 101.952C1097.09 109.2 1097.09 116.447 1097.11 123.698C1097.11 124.324 1096.89 124.601 1096.19 124.536C1095.13 124.442 1093.77 124.951 1093.11 124.312C1092.57 123.809 1092.86 122.598 1092.76 121.5ZM1084.01 104.488C1079.18 104.241 1074.8 107.861 1074.54 112.294C1074.27 117.071 1078.12 121.1 1083.17 121.327C1088.26 121.553 1092.59 117.903 1092.83 113.194C1093.06 108.55 1089.21 104.755 1084.01 104.488Z" fill="#333431"/>
<path d="M1161.42 120.953C1157.75 124.059 1153.64 125.627 1148.75 124.586C1143.48 123.465 1140.58 120.091 1139.58 115.423C1138.43 110.046 1141.13 104.611 1145.88 102.373C1154.11 98.4929 1161.83 103.423 1163.34 110.267C1164.09 113.635 1163.98 113.653 1160.29 113.653C1155.15 113.653 1150 113.679 1144.86 113.632C1143.68 113.62 1143.28 113.741 1143.61 114.982C1145.12 120.665 1150.71 122.965 1156.2 119.915C1157.64 119.112 1158.61 119.074 1159.81 120.006C1160.24 120.347 1160.78 120.585 1161.42 120.953ZM1143.81 110.52C1148.75 110.52 1153.65 110.526 1158.55 110.517C1159.61 110.514 1159.09 109.964 1158.92 109.549C1157.63 106.487 1154.51 104.484 1151.18 104.59C1147.89 104.693 1144.91 107.058 1143.81 110.52Z" fill="#333431"/>
<path d="M1138.51 124.53C1136.39 124.53 1134.35 124.653 1132.33 124.503C1128.04 124.186 1124.84 120.915 1124.78 116.876C1124.73 113.253 1124.73 109.629 1124.79 106.005C1124.8 105.114 1124.57 104.846 1123.56 104.858C1120.81 104.884 1120.84 104.834 1120.87 102.305C1120.88 101.543 1120.99 101.184 1121.99 101.175C1124.77 101.155 1124.77 101.102 1124.77 98.5811C1124.77 95.0544 1124.81 91.5277 1124.74 88.004C1124.72 87.001 1124.99 86.6568 1126.15 86.6745C1129.06 86.7186 1129.06 86.6656 1129.06 89.3923C1129.06 92.919 1129.09 96.4456 1129.05 99.9694C1129.03 100.905 1129.29 101.261 1130.4 101.202C1132.21 101.108 1134.03 101.246 1135.83 101.187C1136.86 101.152 1137.23 101.384 1137.22 102.396C1137.18 104.881 1137.24 104.881 1134.55 104.881C1133.05 104.881 1131.54 104.92 1130.04 104.867C1129.26 104.84 1129.04 105.09 1129.05 105.784C1129.08 109.458 1129.01 113.132 1129.09 116.803C1129.14 119.188 1130.97 120.75 1133.6 120.879C1133.71 120.885 1133.82 120.906 1133.92 120.909C1137.56 121.015 1137.56 121.015 1138.51 124.53Z" fill="#333431"/>
<path d="M1109 114.723C1109 117.662 1108.97 120.603 1109.02 123.541C1109.04 124.374 1108.77 124.597 1107.86 124.603C1104.8 124.627 1104.8 124.662 1104.8 121.918C1104.8 116.676 1104.75 111.432 1104.83 106.19C1104.85 105.043 1104.47 104.775 1103.31 104.852C1102.55 104.902 1101.31 105.243 1101.07 104.655C1100.7 103.755 1100.85 102.628 1100.97 101.616C1101.05 100.925 1101.82 101.231 1102.3 101.225C1104.8 101.19 1104.8 101.196 1104.8 98.9192C1104.8 97.5486 1104.79 96.1749 1104.8 94.8043C1104.82 90.0834 1107.86 87.0567 1112.99 86.7273C1114.48 86.6302 1115.99 86.7479 1117.49 86.6861C1118.41 86.6479 1118.46 87.045 1118.27 87.6656C1118.08 88.2745 1117.81 88.8745 1117.71 89.4951C1117.58 90.2363 1117.19 90.4717 1116.41 90.4334C1115.39 90.3864 1114.37 90.3981 1113.35 90.4305C1110.96 90.504 1109.17 91.9953 1109.05 94.1866C1108.93 96.2397 1109.04 98.3015 1108.99 100.358C1108.97 101.296 1109.64 101.208 1110.27 101.208C1112.14 101.213 1114.01 101.258 1115.87 101.181C1116.9 101.137 1117.12 101.478 1117.12 102.355C1117.12 104.875 1117.17 104.837 1114.36 104.89C1112.61 104.923 1110.27 104.187 1109.28 105.187C1108.41 106.061 1109.02 108.161 1109 109.72C1108.99 111.394 1109 113.058 1109 114.723Z" fill="#333431"/>
<path d="M1172.2 103.99C1174.56 101.826 1177.47 101.317 1180.35 100.773C1181.29 100.596 1181.65 100.914 1181.31 101.776C1181.26 101.914 1181.18 102.052 1181.17 102.193C1180.99 103.864 1180.23 104.676 1178.18 104.996C1174.59 105.558 1172.13 108.823 1172.1 112.367C1172.07 115.991 1172.04 119.612 1172.12 123.236C1172.14 124.315 1171.87 124.648 1170.64 124.612C1167.86 124.53 1167.85 124.598 1167.85 122.118C1167.85 115.609 1167.9 109.1 1167.81 102.59C1167.8 101.37 1168.27 101.152 1169.42 101.17C1171.97 101.202 1171.97 101.167 1172.2 103.99Z" fill="#323330"/>
<path d="M1426.91 115.43C1429.02 113.315 1431.48 111.547 1433.78 109.621C1435.37 108.286 1436.7 106.692 1438.55 105.615C1439.65 104.641 1441.01 103.931 1441.93 102.781C1445.67 100.026 1449.1 96.9404 1452.71 94.0482C1455.3 91.9796 1457.82 89.8384 1460.39 87.7504C1465.26 83.7948 1472.78 84.1678 1477.18 88.5667C1481.6 92.9703 1481.36 99.852 1476.56 103.904C1472.57 107.267 1468.49 110.529 1464.46 113.838C1464.23 114.025 1464.03 114.238 1463.82 114.439C1463.68 114.473 1463.53 114.507 1463.39 114.541C1463.04 114.524 1462.69 114.492 1462.34 114.492C1454.14 114.495 1445.95 114.482 1437.75 114.512C1434.24 114.524 1430.69 114.163 1427.31 115.437C1427.19 115.48 1427.04 115.434 1426.91 115.43Z" fill="#EE5C44"/>
<path d="M1553.5 99.5809C1554.42 98.7961 1555.17 98.1227 1556.06 97.6067C1561.88 94.2107 1570.07 95.8942 1573.92 101.281C1578.03 107.039 1577.82 117.104 1573.61 122.813C1568.92 129.162 1558.53 129.658 1553.8 125.829C1553.71 125.758 1553.59 125.722 1553.29 125.577C1553.29 127.979 1553.27 130.256 1553.3 132.531C1553.32 135.178 1551.94 136.513 1549.06 136.532C1548.28 136.537 1547.48 136.564 1546.7 136.361C1544.78 135.864 1543.87 134.876 1543.87 133.057C1543.85 122.084 1543.85 111.108 1543.87 100.136C1543.87 98.4327 1544.83 97.2046 1546.59 96.6475C1548.38 96.0783 1550.16 96.2478 1551.86 96.9891C1552.93 97.459 1553.4 98.3334 1553.5 99.5809ZM1567.03 112.513C1566.98 110.377 1566.74 108.672 1565.93 107.066C1564.8 104.832 1562.98 103.449 1560.22 103.369C1557.45 103.289 1555.46 104.576 1554.39 106.823C1552.53 110.687 1552.53 114.584 1554.84 118.319C1556.03 120.255 1558.05 120.986 1560.43 120.923C1562.73 120.863 1564.48 119.95 1565.57 118.063C1566.65 116.202 1567.13 114.221 1567.03 112.513Z" fill="#29265E"/>
<path d="M1496.82 97.0109C1501.4 96.9794 1505.99 96.9382 1510.58 96.9188C1513.59 96.9067 1516.59 96.9382 1519.59 96.9309C1523.52 96.9212 1525.31 99.7286 1523.34 102.899C1522.95 103.524 1522.43 104.096 1521.91 104.634C1517.31 109.321 1512.7 113.993 1508.09 118.668C1507.71 119.053 1507.34 119.441 1506.96 119.829C1507.29 120.255 1507.72 120.08 1508.08 120.083C1512.23 120.097 1516.38 120.095 1520.53 120.097C1522.49 120.1 1523.48 120.567 1523.98 121.963C1524.56 123.559 1524.53 125.158 1523.27 126.524C1522.7 127.137 1521.88 127.316 1520.99 127.313C1513.22 127.294 1505.45 127.292 1497.68 127.275C1494.65 127.267 1493.04 125.191 1493.88 122.403C1494.29 121.042 1495.21 119.964 1496.21 118.932C1500.96 114.051 1505.71 109.171 1510.46 104.285C1510.12 103.883 1509.69 104.067 1509.33 104.067C1505.63 104.05 1501.91 104.057 1498.21 104.06C1496.03 104.062 1494.96 103.287 1494.59 101.448C1494.15 99.2272 1494.91 97.7279 1496.85 97.0109C1496.85 97.0084 1496.82 97.0109 1496.82 97.0109Z" fill="#29265E"/>
<path d="M1463.39 114.543C1463.53 114.509 1463.67 114.475 1463.81 114.441C1465.75 114.5 1467.71 114.41 1469.62 114.642C1476.09 115.43 1480.24 120.194 1479.98 126.383C1479.75 131.778 1475.03 136.261 1468.81 136.37C1457.78 136.562 1446.75 136.426 1435.72 136.421C1435.56 136.421 1435.41 136.314 1435.25 136.259C1436.9 135.513 1438.68 135.004 1440.07 133.834C1441.9 132.308 1443.75 130.813 1445.59 129.307C1449.63 126 1453.7 122.728 1457.7 119.378C1459.6 117.777 1461.65 116.311 1463.39 114.543Z" fill="#05B5BB"/>
<path d="M1463.39 114.543C1461.65 116.314 1459.6 117.777 1457.69 119.378C1453.7 122.728 1449.62 126 1445.58 129.307C1443.74 130.813 1441.89 132.308 1440.07 133.834C1438.68 135.004 1436.89 135.515 1435.25 136.259C1430.36 136.971 1426.14 135.825 1422.98 132.267C1418.93 127.725 1419.62 121.219 1424.44 117.249C1425.23 116.604 1426.08 116.033 1426.91 115.429C1427.04 115.434 1427.19 115.483 1427.3 115.439C1430.68 114.165 1434.24 114.526 1437.74 114.514C1445.94 114.485 1454.14 114.497 1462.34 114.495C1462.69 114.495 1463.04 114.526 1463.39 114.543Z" fill="#28255E"/>
<path d="M1441.93 102.78C1441.01 103.93 1439.65 104.64 1438.55 105.614C1433.73 107.93 1427.97 107.324 1424.14 104.047C1420.33 100.789 1419.31 95.765 1421.64 91.2935C1424.25 86.3037 1431.05 83.8887 1436.7 85.9476C1442.61 88.1058 1445.74 94.1712 1443.71 99.5462C1443.27 100.694 1442.61 101.743 1441.93 102.78Z" fill="#F69E20"/>
<path d="M1537.92 112.421C1537.92 116.21 1537.93 119.998 1537.92 123.787C1537.92 126.192 1536.67 127.447 1534.03 127.619C1533.16 127.677 1532.26 127.648 1531.4 127.517C1529.32 127.202 1528.23 126.022 1528.23 124.092C1528.22 116.355 1528.21 108.618 1528.23 100.879C1528.24 98.6168 1529.89 97.115 1532.37 97.0036C1532.94 96.9794 1533.52 96.9842 1534.09 97.0157C1536.48 97.1465 1537.89 98.4957 1537.9 100.695C1537.93 104.605 1537.91 108.514 1537.91 112.421C1537.91 112.421 1537.92 112.421 1537.92 112.421Z" fill="#29265E"/>
<path d="M1538.56 89.8238C1538.56 92.6215 1536.4 94.5424 1533.25 94.5521C1530.07 94.5593 1527.79 92.6603 1527.74 89.9594C1527.7 87.3482 1530.02 85.236 1532.96 85.2045C1536.23 85.1706 1538.56 87.0939 1538.56 89.8238Z" fill="#29265E"/>
<path d="M1496.82 97.0115L1496.85 97.009L1496.82 96.9326L1496.82 97.0115Z" fill="#EE5C44"/>
<path d="M829.277 90.1543H814.676C814.193 90.154 813.725 90.3115 813.357 90.5984C812.99 90.8853 812.747 91.2827 812.671 91.719L806.766 125.934C806.739 126.093 806.749 126.255 806.797 126.41C806.846 126.565 806.93 126.708 807.044 126.83C807.159 126.952 807.301 127.05 807.46 127.117C807.62 127.184 807.794 127.218 807.97 127.218H814.941C815.424 127.218 815.892 127.061 816.26 126.773C816.627 126.486 816.871 126.088 816.946 125.651L818.538 116.423C818.613 115.987 818.856 115.589 819.223 115.302C819.59 115.015 820.058 114.857 820.541 114.856H825.163C834.781 114.856 840.332 110.603 841.782 102.175C842.435 98.4872 841.81 95.5899 839.92 93.5608C837.845 91.3327 834.164 90.1543 829.277 90.1543ZM830.962 102.651C830.163 107.439 826.16 107.439 822.289 107.439H820.086L821.632 98.4969C821.677 98.2353 821.823 97.9971 822.043 97.825C822.264 97.653 822.544 97.5585 822.834 97.5585H823.844C826.48 97.5585 828.968 97.5585 830.253 98.932C831.02 99.7514 831.254 100.969 830.962 102.651ZM872.924 102.497H865.931C865.642 102.497 865.361 102.591 865.141 102.763C864.92 102.935 864.775 103.173 864.729 103.435L864.42 105.222L863.931 104.574C862.417 102.567 859.042 101.896 855.673 101.896C847.946 101.896 841.347 107.243 840.061 114.745C839.393 118.487 840.343 122.065 842.666 124.561C844.797 126.855 847.846 127.811 851.473 127.811C857.699 127.811 861.151 124.153 861.151 124.153L860.839 125.929C860.812 126.087 860.822 126.25 860.869 126.404C860.917 126.559 861 126.703 861.114 126.825C861.228 126.947 861.37 127.046 861.53 127.113C861.69 127.181 861.863 127.216 862.039 127.216H868.337C868.821 127.216 869.289 127.059 869.657 126.771C870.024 126.484 870.267 126.086 870.342 125.65L874.121 103.78C874.149 103.622 874.139 103.46 874.092 103.305C874.044 103.151 873.961 103.008 873.847 102.886C873.733 102.764 873.591 102.666 873.432 102.598C873.273 102.531 873.099 102.497 872.924 102.497ZM863.177 114.932C862.502 118.583 859.332 121.033 855.288 121.033C853.258 121.033 851.635 120.438 850.593 119.311C849.56 118.191 849.167 116.597 849.496 114.821C850.126 111.202 853.35 108.672 857.331 108.672C859.317 108.672 860.931 109.274 861.994 110.412C863.06 111.561 863.482 113.165 863.177 114.932ZM910.162 102.497H903.136C902.805 102.497 902.479 102.571 902.186 102.713C901.893 102.855 901.642 103.06 901.456 103.31L891.765 116.355L887.657 103.819C887.531 103.437 887.274 103.102 886.923 102.864C886.572 102.625 886.147 102.497 885.71 102.497H878.805C878.612 102.496 878.421 102.538 878.248 102.619C878.075 102.699 877.926 102.816 877.813 102.96C877.7 103.104 877.627 103.271 877.598 103.446C877.57 103.621 877.588 103.8 877.65 103.968L885.39 124.723L878.114 134.109C877.984 134.276 877.908 134.471 877.892 134.675C877.876 134.879 877.922 135.082 878.025 135.264C878.127 135.445 878.282 135.597 878.473 135.703C878.664 135.809 878.883 135.865 879.107 135.865H886.124C886.452 135.866 886.775 135.793 887.065 135.655C887.356 135.516 887.605 135.315 887.792 135.069L911.162 104.243C911.288 104.076 911.363 103.881 911.376 103.678C911.39 103.475 911.343 103.273 911.24 103.093C911.137 102.913 910.982 102.763 910.792 102.658C910.602 102.552 910.385 102.497 910.162 102.497Z" fill="#253B80"/>
<path d="M933.426 90.1543H918.822C918.339 90.1545 917.872 90.3122 917.505 90.599C917.138 90.8859 916.895 91.283 916.82 91.719L910.914 125.934C910.887 126.093 910.897 126.255 910.945 126.409C910.993 126.564 911.076 126.707 911.19 126.829C911.304 126.951 911.446 127.049 911.606 127.116C911.765 127.183 911.939 127.218 912.114 127.218H919.608C919.946 127.218 920.273 127.107 920.53 126.906C920.786 126.705 920.956 126.427 921.009 126.122L922.685 116.423C922.759 115.987 923.002 115.589 923.369 115.302C923.737 115.015 924.204 114.857 924.687 114.856H929.307C938.928 114.856 944.477 110.603 945.929 102.175C946.584 98.4872 945.954 95.5899 944.065 93.5608C941.992 91.3327 938.313 90.1543 933.426 90.1543ZM935.11 102.651C934.314 107.439 930.311 107.439 926.438 107.439H924.237L925.785 98.4969C925.829 98.2353 925.974 97.9969 926.194 97.8247C926.415 97.6526 926.695 97.5582 926.985 97.5585H927.994C930.629 97.5585 933.118 97.5585 934.404 98.932C935.17 99.7514 935.403 100.969 935.11 102.651ZM977.07 102.497H970.082C969.792 102.496 969.512 102.59 969.291 102.762C969.071 102.935 968.926 103.173 968.882 103.435L968.573 105.222L968.081 104.574C966.568 102.567 963.194 101.896 959.825 101.896C952.099 101.896 945.502 107.243 944.216 114.745C943.55 118.487 944.496 122.065 946.819 124.561C948.954 126.855 951.998 127.811 955.626 127.811C961.851 127.811 965.304 124.153 965.304 124.153L964.992 125.929C964.964 126.088 964.975 126.25 965.022 126.405C965.07 126.56 965.154 126.704 965.269 126.827C965.383 126.949 965.525 127.047 965.686 127.115C965.846 127.182 966.02 127.217 966.196 127.216H972.492C972.976 127.216 973.443 127.058 973.81 126.771C974.177 126.483 974.42 126.086 974.495 125.65L978.276 103.78C978.303 103.621 978.292 103.459 978.243 103.305C978.195 103.15 978.111 103.007 977.996 102.885C977.882 102.763 977.739 102.665 977.58 102.598C977.42 102.531 977.246 102.496 977.07 102.497ZM967.324 114.932C966.653 118.583 963.478 121.033 959.435 121.033C957.409 121.033 955.782 120.438 954.74 119.311C953.706 118.191 953.318 116.597 953.642 114.821C954.276 111.202 957.496 108.672 961.478 108.672C963.463 108.672 965.077 109.274 966.141 110.412C967.21 111.561 967.633 113.165 967.324 114.932ZM985.313 91.0927L979.32 125.934C979.293 126.093 979.303 126.255 979.351 126.409C979.399 126.564 979.482 126.707 979.596 126.829C979.71 126.951 979.852 127.049 980.011 127.116C980.171 127.183 980.344 127.218 980.52 127.218H986.545C987.546 127.218 988.396 126.555 988.55 125.651L994.46 91.4381C994.487 91.2795 994.477 91.1173 994.429 90.9628C994.381 90.8083 994.298 90.665 994.184 90.5428C994.069 90.4206 993.928 90.3225 993.768 90.2551C993.609 90.1877 993.435 90.1526 993.26 90.1523H986.513C986.223 90.1533 985.944 90.2484 985.724 90.4207C985.504 90.5931 985.358 90.8313 985.313 91.0927Z" fill="#179BD7"/>
<path d="M746.13 133.867L747.247 127.386L744.76 127.333H732.882L741.136 79.5073C741.161 79.3611 741.242 79.2279 741.365 79.132C741.488 79.036 741.645 78.9836 741.807 78.9844H761.833C768.482 78.9844 773.07 80.2487 775.465 82.744C776.588 83.9147 777.304 85.138 777.649 86.4842C778.012 87.8967 778.019 89.5844 777.664 91.6427L777.639 91.7929V93.1118L778.762 93.6932C779.619 94.0902 780.39 94.6271 781.036 95.2775C781.996 96.2784 782.618 97.5505 782.88 99.0586C783.151 100.61 783.062 102.455 782.618 104.545C782.105 106.949 781.277 109.042 780.158 110.755C779.171 112.29 777.844 113.619 776.262 114.657C774.776 115.621 773.01 116.353 771.014 116.821C769.08 117.281 766.874 117.513 764.455 117.513H762.897C761.782 117.513 760.7 117.88 759.85 118.538C759.001 119.202 758.438 120.12 758.261 121.129L758.144 121.712L756.171 133.135L756.082 133.555C756.058 133.688 756.017 133.754 755.958 133.799C755.9 133.842 755.828 133.866 755.753 133.867H746.13Z" fill="#253B80"/>
<path d="M779.824 91.9453C779.765 92.2945 779.696 92.6516 779.619 93.0184C776.978 105.409 767.943 109.69 756.403 109.69H750.528C749.116 109.69 747.927 110.626 747.707 111.899L744.699 129.333L743.847 134.275C743.813 134.471 743.826 134.671 743.885 134.862C743.944 135.053 744.048 135.231 744.189 135.381C744.33 135.532 744.505 135.654 744.702 135.737C744.899 135.82 745.114 135.863 745.331 135.863H755.752C756.986 135.863 758.034 135.044 758.229 133.932L758.331 133.448L760.293 122.069L760.419 121.445C760.611 120.329 761.662 119.51 762.896 119.51H764.454C774.551 119.51 782.455 115.764 784.765 104.924C785.73 100.395 785.23 96.6141 782.677 93.9549C781.867 93.1323 780.901 92.4513 779.824 91.9453Z" fill="#179BD7"/>
<path d="M777.061 90.9382C776.218 90.7153 775.36 90.5413 774.493 90.4173C772.779 90.1766 771.047 90.0612 769.314 90.072H753.617C753.02 90.0716 752.442 90.2664 751.988 90.6214C751.534 90.9764 751.234 91.468 751.142 92.0074L747.803 111.334L747.707 111.898C747.811 111.283 748.153 110.722 748.67 110.317C749.187 109.912 749.846 109.689 750.528 109.69H756.403C767.943 109.69 776.978 105.407 779.619 93.0181C779.698 92.6513 779.764 92.2942 779.824 91.945C779.127 91.611 778.401 91.331 777.653 91.108C777.457 91.0485 777.26 90.9919 777.061 90.9382Z" fill="#222D65"/>
<path d="M751.142 92.0074C751.233 91.4678 751.533 90.9759 751.987 90.6212C752.441 90.2664 753.019 90.0722 753.617 90.0739H769.314C771.173 90.0739 772.909 90.1851 774.493 90.4192C775.565 90.5732 776.622 90.8035 777.655 91.1079C778.434 91.344 779.158 91.623 779.826 91.9449C780.612 87.3658 779.82 84.2481 777.111 81.4249C774.124 78.3169 768.733 76.9863 761.835 76.9863H741.808C740.399 76.9863 739.197 77.9228 738.979 79.1969L730.638 127.514C730.599 127.739 730.614 127.968 730.681 128.187C730.748 128.405 730.867 128.608 731.028 128.781C731.189 128.953 731.39 129.092 731.615 129.188C731.841 129.283 732.086 129.332 732.335 129.333H744.699L747.803 111.334L751.142 92.0074Z" fill="#253B80"/>
<path fill-rule="evenodd" clip-rule="evenodd" d="M442.024 130.851C447.954 135.844 455.916 138.872 464.578 138.872C483.179 138.872 498.235 125.008 498.235 107.956C498.235 90.8514 483.179 76.9863 464.578 76.9863C455.916 76.9863 447.954 80.0142 442.024 85.0076C435.223 90.6913 430.921 98.8721 430.921 107.956C430.922 117.039 435.223 125.22 442.024 130.851Z" fill="#E9B040"/>
<path fill-rule="evenodd" clip-rule="evenodd" d="M493.761 125.167C493.761 124.635 494.226 124.211 494.807 124.211C495.446 124.211 495.91 124.636 495.91 125.167C495.91 125.752 495.445 126.177 494.807 126.177C494.226 126.177 493.761 125.752 493.761 125.167ZM494.807 125.965C495.272 125.965 495.678 125.592 495.678 125.167C495.678 124.743 495.271 124.424 494.807 124.424C494.399 124.424 493.993 124.743 493.993 125.167C493.993 125.592 494.4 125.965 494.807 125.965ZM494.691 125.646H494.458V124.742H494.864C494.923 124.742 495.039 124.742 495.097 124.796C495.213 124.849 495.213 124.902 495.213 125.009C495.213 125.115 495.156 125.221 495.039 125.221L495.272 125.646H494.981L494.864 125.274H494.691V125.646V125.114H494.923C494.981 125.114 494.981 125.061 494.981 125.008C494.981 124.954 494.981 124.954 494.923 124.902H494.691V125.646Z" fill="#E9B040"/>
<path fill-rule="evenodd" clip-rule="evenodd" d="M452.895 104.663C452.779 103.547 452.546 102.485 452.314 101.369H431.736C431.968 100.254 432.317 99.1915 432.665 98.1287H451.326C450.921 97.0104 450.455 95.9112 449.931 94.8351H434.119C434.701 93.71 435.341 92.6109 436.038 91.5416H447.955C447.188 90.4071 446.333 89.3242 445.397 88.3012H438.596C439.648 87.127 440.794 86.0261 442.025 85.0076C436.038 80.0673 428.132 76.9863 419.413 76.9863C400.869 76.9863 385.756 90.8514 385.756 107.956C385.756 125.008 400.869 138.872 419.413 138.872C428.132 138.872 436.038 135.844 442.025 130.851C443.238 129.85 444.365 128.767 445.397 127.61H438.596C437.665 126.548 436.852 125.486 436.038 124.316H447.955C448.704 123.266 449.365 122.165 449.931 121.023H434.119C433.596 119.961 433.073 118.898 432.665 117.782H451.326C451.732 116.72 452.024 115.605 452.313 114.488C452.546 113.426 452.778 112.311 452.894 111.195C453.012 110.118 453.071 109.036 453.07 107.954C453.07 106.84 453.011 105.725 452.895 104.663Z" fill="#CC2131"/>
<path fill-rule="evenodd" clip-rule="evenodd" d="M493.761 115.128C493.761 114.544 494.226 114.119 494.807 114.119C495.446 114.119 495.91 114.544 495.91 115.128C495.91 115.659 495.445 116.137 494.807 116.137C494.226 116.137 493.761 115.658 493.761 115.128ZM494.807 115.871C495.272 115.871 495.678 115.552 495.678 115.128C495.678 114.703 495.271 114.384 494.807 114.384C494.399 114.384 493.993 114.703 493.993 115.128C493.993 115.552 494.4 115.871 494.807 115.871ZM494.691 115.552H494.458V114.702H495.097C495.213 114.756 495.213 114.863 495.213 114.969C495.213 115.021 495.156 115.128 495.039 115.181L495.272 115.553H494.981L494.864 115.234H494.691V115.552V115.074H494.807C494.864 115.074 494.923 115.074 494.923 115.021C494.981 115.021 494.981 114.968 494.981 114.914C494.981 114.914 494.981 114.862 494.923 114.862C494.923 114.808 494.864 114.862 494.807 114.862H494.691V115.552Z" fill="white"/>
<path fill-rule="evenodd" clip-rule="evenodd" d="M430.573 116.88C429.468 117.145 428.654 117.305 427.841 117.305C426.097 117.305 425.05 116.295 425.05 114.489C425.05 114.118 425.108 113.746 425.166 113.321L425.399 112.1L425.574 111.09L427.143 102.378H430.631L430.224 104.291H432.433L431.909 107.478H429.7L428.771 112.684C428.712 112.95 428.712 113.109 428.712 113.215C428.712 113.906 429.061 114.171 429.933 114.171C430.34 114.171 430.688 114.118 431.037 114.065L430.573 116.88ZM441.85 116.774C440.572 117.092 439.409 117.251 438.13 117.251C434.177 117.251 431.909 115.339 431.909 111.568C431.909 107.159 434.584 103.971 438.304 103.971C441.268 103.971 443.186 105.778 443.186 108.592C443.186 109.549 443.07 110.452 442.78 111.727H435.514C435.455 111.94 435.455 112.046 435.455 112.152C435.455 113.64 436.56 114.383 438.653 114.383C439.989 114.383 441.152 114.118 442.431 113.587L441.85 116.774ZM439.699 109.177V108.54C439.699 107.478 439.06 106.893 437.955 106.893C436.792 106.893 435.979 107.689 435.63 109.177H439.699V109.177ZM402.67 117.039H399.066L401.159 104.981L396.45 117.039H393.951L393.66 105.034L391.451 117.039H387.905L390.753 101.369H396.043L396.16 111.037L399.706 101.369H405.519L402.67 117.039ZM411.448 111.356C411.1 111.302 410.983 111.302 410.751 111.302C408.658 111.302 407.612 112.045 407.612 113.214C407.612 114.011 408.135 114.543 408.949 114.543C410.692 114.543 411.39 113.214 411.448 111.356ZM414.355 117.039H411.216L411.274 115.711C410.46 116.72 409.356 117.251 407.437 117.251C405.693 117.251 404.182 115.818 404.182 113.746C404.182 113.162 404.298 112.631 404.473 112.1C405.054 110.133 407.205 108.912 410.518 108.859C410.925 108.859 411.564 108.859 412.146 108.912C412.261 108.487 412.261 108.327 412.261 108.062C412.261 107.212 411.506 106.946 409.82 106.946C408.774 106.946 407.611 107.106 406.798 107.371L406.274 107.478L406.042 107.53L406.565 104.662C408.251 104.183 409.471 103.971 410.809 103.971C413.948 103.971 415.633 105.299 415.633 107.743C415.633 108.38 415.692 108.859 415.459 110.24L414.646 114.808L414.529 115.605L414.471 116.243L414.413 116.668L414.355 117.039ZM459.406 104.397C460.452 104.397 461.382 104.662 462.661 105.246L463.3 101.846C462.951 101.687 462.835 101.687 462.37 101.528L460.918 101.156C460.452 101.049 459.872 100.996 459.231 100.996C457.428 100.996 456.382 101.049 455.279 101.634C454.697 102.006 453.941 102.484 453.127 103.334L452.662 103.227L448.942 105.618L449.117 104.29H445.279L443.013 117.038H446.676L448.012 110.187C448.012 110.187 448.536 109.229 448.768 108.912C449.466 108.115 450.047 108.115 450.802 108.115H451.094C450.972 108.924 450.913 109.741 450.919 110.558C450.919 114.701 453.476 117.304 457.429 117.304C458.418 117.304 459.291 117.198 460.627 116.879L461.267 113.268C460.105 113.851 459.058 114.117 458.186 114.117C456.036 114.117 454.755 112.63 454.755 110.293C454.754 106.84 456.673 104.397 459.406 104.397ZM490.271 101.369L489.459 105.831C488.586 104.609 487.539 104.025 486.144 104.025C484.225 104.025 482.424 105.034 481.319 106.946V106.894L478.994 105.618L479.227 104.29H475.332L473.123 117.039H476.727L477.948 110.187C477.948 110.187 478.878 109.23 479.111 108.912C479.692 108.275 480.273 108.168 480.738 108.115C480.332 109.177 480.099 110.452 480.099 111.887C480.099 115.074 481.901 117.199 484.574 117.199C485.912 117.199 486.958 116.774 487.946 115.764L487.772 117.039H491.202L493.992 101.369H490.271ZM485.796 114.011C484.575 114.011 483.936 113.162 483.936 111.514C483.936 109.017 485.098 107.212 486.783 107.212C488.062 107.212 488.703 108.115 488.703 109.709C488.703 112.258 487.54 114.011 485.796 114.011ZM468.997 111.356C468.649 111.302 468.532 111.302 468.3 111.302C466.205 111.302 465.159 112.045 465.159 113.214C465.159 114.011 465.683 114.543 466.497 114.543C468.241 114.543 468.939 113.214 468.997 111.356ZM471.904 117.039H468.706L468.822 115.711C468.009 116.72 466.903 117.251 464.986 117.251C463.184 117.251 461.615 115.87 461.615 113.746C461.615 110.719 464.113 108.859 468.066 108.859C468.474 108.859 469.112 108.859 469.636 108.913C469.753 108.488 469.812 108.328 469.812 108.063C469.812 107.212 469.056 106.947 467.312 106.947C466.323 106.947 465.103 107.106 464.289 107.372L463.824 107.478L463.591 107.531L464.114 104.662C465.8 104.184 467.022 103.972 468.358 103.972C471.497 103.972 473.124 105.3 473.124 107.743C473.124 108.381 473.241 108.859 472.951 110.24L472.195 114.809L472.078 115.606L471.962 116.243L471.904 116.669V117.039H471.904ZM421.969 106.999C422.667 106.999 423.655 107.052 424.702 107.212L425.225 104.237C424.179 104.131 422.784 103.971 421.969 103.971C417.901 103.971 416.564 105.99 416.564 108.327C416.564 109.868 417.319 110.983 419.296 111.833C420.749 112.47 420.981 112.576 420.981 113.161C420.981 113.957 420.226 114.436 418.83 114.436C417.726 114.436 416.68 114.276 415.517 113.905L415.11 116.826L415.168 116.879L415.865 116.986C416.098 117.038 416.389 117.092 416.796 117.144C417.667 117.198 418.423 117.251 418.889 117.251C422.958 117.251 424.644 115.817 424.644 113.001C424.644 111.249 423.713 110.187 421.911 109.443C420.342 108.805 420.167 108.7 420.167 108.115C420.167 107.531 420.865 106.999 421.969 106.999Z" fill="#1B3771"/>
<path fill-rule="evenodd" clip-rule="evenodd" d="M464.288 100.838L463.648 104.237C462.369 103.653 461.439 103.388 460.393 103.388C457.66 103.388 455.743 105.831 455.743 109.284C455.743 111.675 457.021 113.108 459.173 113.108C460.044 113.108 461.091 112.843 462.253 112.312L461.614 115.87C460.277 116.189 459.405 116.349 458.416 116.349C454.464 116.349 452.022 113.746 452.022 109.55C452.022 103.972 455.394 100.041 460.218 100.041C460.857 100.041 461.438 100.094 461.904 100.2L463.357 100.519C463.823 100.679 463.94 100.732 464.288 100.838ZM452.546 103.175H452.197C450.977 103.175 450.279 103.707 449.174 105.246L449.523 103.281H446.209L443.943 116.03H447.606C448.942 108.221 449.291 106.893 451.035 106.893H451.268C451.617 105.353 452.081 104.237 452.663 103.228L452.546 103.175ZM431.503 115.87C430.515 116.189 429.701 116.296 428.888 116.296C427.027 116.296 425.981 115.34 425.981 113.481C425.981 113.162 426.039 112.738 426.097 112.365L426.33 111.09L426.504 110.082L428.073 101.369H431.678L431.27 103.281H433.131L432.665 106.416H430.805L429.817 111.728C429.759 111.94 429.759 112.1 429.759 112.259C429.759 112.897 430.108 113.163 430.98 113.163C431.387 113.163 431.735 113.163 431.968 113.056L431.503 115.87ZM417.494 107.318C417.494 108.913 418.307 110.027 420.225 110.878C421.737 111.515 421.969 111.727 421.969 112.259C421.969 113.056 421.33 113.427 419.877 113.427C418.772 113.427 417.784 113.268 416.621 112.95L416.098 115.87L416.272 115.924L416.912 116.03C417.144 116.083 417.436 116.137 417.9 116.137C418.714 116.243 419.411 116.243 419.877 116.243C423.713 116.243 425.515 114.915 425.515 111.994C425.515 110.24 424.76 109.23 422.958 108.434C421.389 107.797 421.214 107.638 421.214 107.053C421.214 106.363 421.854 106.044 423.016 106.044C423.714 106.044 424.702 106.097 425.632 106.204L426.155 103.282C425.225 103.123 423.772 103.016 422.958 103.016C418.889 103.016 417.436 104.981 417.494 107.318ZM492.133 116.03H488.703L488.878 114.808C487.889 115.764 486.842 116.189 485.505 116.189C482.831 116.189 481.087 114.119 481.087 110.931C481.087 106.681 483.82 103.069 487.016 103.069C488.47 103.069 489.516 103.653 490.505 104.822L491.319 100.36H494.923L492.133 116.03ZM486.784 113.056C488.471 113.056 489.633 111.25 489.633 108.753C489.633 107.106 488.993 106.255 487.714 106.255C486.086 106.255 484.867 108.009 484.867 110.506C484.867 112.206 485.505 113.056 486.784 113.056ZM442.664 115.764C441.384 116.137 440.222 116.296 438.885 116.296C434.816 116.296 432.723 114.331 432.723 110.559C432.723 106.203 435.397 102.963 439.06 102.963C442.082 102.963 444 104.769 444 107.584C444 108.541 443.884 109.444 443.535 110.771H436.328C436.27 110.931 436.27 111.038 436.27 111.144C436.27 112.631 437.375 113.375 439.467 113.375C440.804 113.375 441.966 113.162 443.245 112.578L442.664 115.764ZM440.629 108.168V107.531C440.629 106.469 439.989 105.884 438.885 105.884C437.723 105.884 436.909 106.681 436.56 108.168H440.629ZM403.601 116.03H399.996L402.089 103.972L397.381 116.03H394.881L394.59 104.078L392.382 116.03H389.01L391.858 100.36H397.09L397.265 110.081L400.752 100.36H406.449L403.601 116.03ZM412.611 110.346C412.262 110.346 412.087 110.294 411.797 110.294C409.762 110.294 408.716 110.984 408.716 112.259C408.716 113.056 409.181 113.533 409.995 113.533C411.506 113.533 412.553 112.259 412.611 110.346ZM415.285 116.03H412.261L412.319 114.702C411.389 115.764 410.168 116.243 408.483 116.243C406.506 116.243 405.169 114.862 405.169 112.79C405.169 109.657 407.494 107.85 411.563 107.85C411.97 107.85 412.494 107.904 413.075 107.956C413.191 107.532 413.191 107.372 413.191 107.16C413.191 106.31 412.551 105.991 410.866 105.991C409.82 105.991 408.656 106.097 407.843 106.31L407.32 106.469L406.971 106.522L407.494 103.654C409.296 103.176 410.517 103.016 411.854 103.016C414.993 103.016 416.679 104.291 416.679 106.734C416.679 107.372 416.621 107.85 416.388 109.285L415.574 113.8L415.458 114.596L415.399 115.234L415.341 115.713L415.285 116.03ZM470.16 110.346C469.752 110.346 469.578 110.294 469.346 110.294C467.254 110.294 466.206 110.984 466.206 112.259C466.206 113.056 466.73 113.533 467.544 113.533C468.998 113.533 470.101 112.259 470.16 110.346ZM472.834 116.03H469.811L469.868 114.702C468.939 115.764 467.718 116.243 466.032 116.243C464.056 116.243 462.718 114.862 462.718 112.79C462.718 109.657 465.043 107.85 469.112 107.85C469.52 107.85 470.044 107.904 470.566 107.956C470.683 107.532 470.741 107.372 470.741 107.16C470.741 106.31 470.101 105.991 468.417 105.991C467.369 105.991 466.149 106.097 465.335 106.31L464.87 106.469L464.521 106.522L465.044 103.654C466.847 103.176 468.066 103.016 469.404 103.016C472.543 103.016 474.17 104.291 474.17 106.734C474.17 107.372 474.17 107.85 473.88 109.285L473.124 113.8L473.008 114.596L472.892 115.234L472.834 115.713V116.03H472.834ZM482.599 103.175H482.25C481.03 103.175 480.333 103.707 479.228 105.246L479.577 103.281H476.263L474.053 116.03H477.658C478.995 108.221 479.344 106.893 481.088 106.893H481.321C481.669 105.353 482.134 104.237 482.716 103.228L482.599 103.175Z" fill="white"/>
<path fill-rule="evenodd" clip-rule="evenodd" d="M188.898 142.662C215.483 132.25 252.785 122.813 302.19 132.262L302.708 120.811C250.584 115.611 213.183 130.781 188.898 141.533V142.662Z" fill="#E7A83A"/>
<path fill-rule="evenodd" clip-rule="evenodd" d="M216.699 112.466L228.221 77.7481H238.502L226.979 112.466H216.699ZM212.103 77.7576L202.855 92.4746C200.501 96.3291 199.125 98.2759 198.463 100.712H198.322C198.486 97.6238 198.014 93.833 197.97 91.6904L196.949 77.7576H179.643L179.465 78.6914C183.911 78.6914 186.548 80.7324 187.273 84.9072L190.646 112.466H201.297L222.833 77.7576H212.103ZM292.053 112.466L291.769 107.303L278.932 107.293L276.306 112.465H265.145L285.383 77.8138H299.083L302.51 112.465H292.053V112.466ZM290.874 91.987C290.76 89.4212 290.664 85.9385 290.856 83.8312H290.704C290.078 85.5546 287.391 90.7302 286.209 93.2757L282.383 100.886H291.397L290.874 91.987ZM249.295 113.453C242.037 113.453 237.22 111.349 233.781 109.473L238.678 102.638C241.766 104.216 244.189 106.037 249.766 106.037C251.56 106.037 253.288 105.611 254.269 104.058C255.699 101.8 253.939 100.585 249.923 98.5075L247.94 97.3292C241.986 93.6116 239.411 90.0808 242.214 83.9172C244.007 79.9747 248.737 76.9863 256.54 76.9863C261.921 76.9863 266.966 79.1133 269.906 81.1916L264.276 87.2258C261.407 85.1056 259.029 84.033 256.308 84.033C254.138 84.033 252.49 84.7975 251.921 85.8288C250.851 87.7676 252.267 89.0894 255.396 90.8643L257.754 92.2349C264.982 96.4008 266.704 100.769 264.892 104.853C261.777 111.883 255.677 113.453 249.295 113.453ZM305.323 83.1181H304.645V79.3544H306.208C307.203 79.3544 307.71 79.6727 307.71 80.4365C307.71 81.1178 307.252 81.3995 306.635 81.4631L307.789 83.1181H307.023L305.959 81.5092H305.323V83.1181ZM306.078 80.9816C306.586 80.9816 307.033 80.9363 307.033 80.3905C307.033 79.9361 306.545 79.8812 306.139 79.8812H305.322V80.9816H306.078ZM306.058 84.5727C303.92 84.5727 302.398 83.1093 302.398 81.1726C302.398 79.1269 304.088 77.7725 306.058 77.7725C308.009 77.7725 309.699 79.1269 309.699 81.1726C309.699 83.2177 308.009 84.5727 306.058 84.5727ZM306.058 78.3637C304.447 78.3637 303.194 79.5176 303.194 81.1726C303.194 82.7179 304.288 83.9815 306.058 83.9815C307.65 83.9815 308.903 82.8364 308.903 81.1726C308.903 79.5176 307.65 78.3637 306.058 78.3637Z" fill="#1D5B99"/>
<path fill-rule="evenodd" clip-rule="evenodd" d="M576.353 145.62H576.101C576.101 145.505 576.038 145.332 576.038 145.274C576.038 145.217 576.038 145.102 575.849 145.102H575.47V145.62H575.281V144.41H575.849C576.101 144.41 576.29 144.468 576.29 144.698C576.29 144.871 576.227 144.929 576.164 144.986C576.227 145.044 576.29 145.102 576.29 145.217V145.447C576.29 145.505 576.29 145.505 576.353 145.505V145.62ZM576.101 144.756C576.101 144.583 575.975 144.583 575.912 144.583H575.47V144.929H575.849C575.975 144.929 576.101 144.871 576.101 144.756ZM577.173 144.986C577.173 144.295 576.543 143.719 575.723 143.719C574.966 143.719 574.335 144.295 574.335 144.986C574.335 145.735 574.966 146.312 575.723 146.312C576.542 146.312 577.173 145.735 577.173 144.986ZM576.984 144.986C576.984 145.621 576.417 146.081 575.723 146.081C575.029 146.081 574.524 145.62 574.524 144.986C574.524 144.41 575.029 143.892 575.723 143.892C576.416 143.892 576.984 144.41 576.984 144.986ZM654.675 121.705C654.675 123.434 653.477 124.24 651.333 124.24H647.234V122.511H651.333C651.711 122.511 652.027 122.454 652.153 122.339C652.279 122.223 652.405 122.05 652.405 121.82C652.405 121.589 652.279 121.359 652.153 121.244C652.027 121.128 651.775 121.071 651.396 121.071C649.442 121.013 646.982 121.128 646.982 118.593C646.982 117.44 647.802 116.172 650.009 116.172H654.234V117.901H650.324C649.946 117.901 649.693 117.901 649.504 118.016C649.315 118.189 649.189 118.362 649.189 118.65C649.189 118.939 649.378 119.112 649.63 119.227C649.883 119.285 650.135 119.342 650.451 119.342H651.585C652.784 119.342 653.541 119.572 654.045 119.976C654.423 120.379 654.675 120.899 654.675 121.705ZM645.784 119.976C645.279 119.572 644.522 119.342 643.324 119.342H642.189C641.874 119.342 641.621 119.284 641.369 119.227C641.117 119.112 640.928 118.939 640.928 118.65C640.928 118.362 640.991 118.189 641.243 118.016C641.433 117.901 641.684 117.901 642.063 117.901H645.973V116.172H641.748C639.477 116.172 638.72 117.44 638.72 118.593C638.72 121.128 641.18 121.013 643.135 121.071C643.513 121.071 643.766 121.128 643.891 121.244C644.017 121.359 644.144 121.589 644.144 121.82C644.144 122.05 644.018 122.223 643.891 122.339C643.702 122.454 643.45 122.511 643.072 122.511H638.973V124.24H643.072C645.215 124.24 646.414 123.434 646.414 121.705C646.414 120.899 646.162 120.379 645.784 119.976ZM637.712 122.57H632.731V120.956H637.586V119.343H632.731V117.844H637.712V116.173H630.649V124.241H637.712V122.57ZM628.379 116.577C627.685 116.231 626.865 116.173 625.793 116.173H620.938V124.24H623.081V121.301H625.352C626.108 121.301 626.55 121.359 626.866 121.647C627.244 122.05 627.244 122.742 627.244 123.261V124.24H629.325V122.684C629.325 121.935 629.262 121.589 629.01 121.186C628.82 120.955 628.443 120.667 627.938 120.494C628.505 120.322 629.452 119.63 629.452 118.362C629.451 117.441 629.073 116.922 628.379 116.577ZM616.397 116.173H609.65L606.938 118.824L604.352 116.173H595.839V124.24H604.227L606.938 121.589L609.524 124.24H613.623V121.532H616.272C618.1 121.532 619.93 121.071 619.93 118.824C619.929 116.634 618.037 116.173 616.397 116.173ZM626.676 119.516C626.361 119.63 626.046 119.63 625.667 119.63L623.081 119.689V117.844H625.667C626.046 117.844 626.424 117.844 626.676 118.017C626.929 118.132 627.117 118.363 627.117 118.708C627.117 119.054 626.929 119.343 626.676 119.516ZM616.397 119.919H613.622V117.844H616.397C617.154 117.844 617.659 118.132 617.659 118.824C617.659 119.516 617.154 119.919 616.397 119.919ZM608.262 120.207L611.541 117.038V123.549L608.262 120.207ZM603.154 122.57H597.92V120.956H602.586V119.343H597.92V117.844H603.217L605.55 120.207L603.154 122.57ZM648.81 110.352H645.784L641.811 104.301V110.352H637.523L636.703 108.566H632.289L631.469 110.352H629.009C628 110.352 626.676 110.122 625.92 109.43C625.226 108.739 624.847 107.817 624.847 106.376C624.847 105.166 625.037 104.071 625.982 103.207C626.612 102.572 627.748 102.285 629.198 102.285H631.216V104.014H629.198C628.442 104.014 628 104.129 627.559 104.475C627.18 104.821 626.991 105.454 626.991 106.319C626.991 107.183 627.18 107.817 627.559 108.221C627.874 108.509 628.442 108.624 629.009 108.624H629.955L632.982 102.285H636.135L639.666 109.892V102.285H642.946L646.666 107.874V102.285H648.81V110.352H648.81ZM623.775 102.285H621.632V110.352H623.775V102.285ZM619.298 102.631C618.604 102.285 617.848 102.285 616.776 102.285H611.92V110.352H614.001V107.413H616.271C617.028 107.413 617.532 107.471 617.847 107.759C618.226 108.163 618.162 108.854 618.162 109.315V110.352H620.306V108.739C620.306 108.047 620.243 107.701 619.928 107.298C619.739 107.067 619.36 106.779 618.919 106.607C619.486 106.376 620.433 105.742 620.433 104.474C620.433 103.552 619.991 103.034 619.298 102.631ZM610.406 108.681H605.487V107.068H610.343V105.397H605.487V103.956H610.406V102.285H603.343V110.353H610.406V108.681ZM601.767 102.285H598.299L595.713 107.759L592.938 102.285H589.533V109.891L585.939 102.285H582.786L579.002 110.352H581.272L582.092 108.566H586.506L587.326 110.352H591.614V104.014L594.704 110.352H596.532L599.622 104.014V110.352H601.766V102.285H601.767ZM635.947 106.837L634.496 103.668L633.046 106.837H635.947ZM617.659 105.57C617.344 105.743 617.028 105.743 616.587 105.743H614.001V103.956H616.586C616.965 103.956 617.405 103.956 617.658 104.072C617.91 104.245 618.037 104.475 618.037 104.821C618.037 105.166 617.91 105.454 617.659 105.57ZM582.848 106.837L584.299 103.668L585.749 106.837H582.848ZM654.171 76.9863H578.939V106.031L581.524 100.671H587.01L587.767 101.997V100.671H594.199L595.65 103.552L597.037 100.671H617.532C618.478 100.671 619.297 100.844 619.929 101.305V100.671H625.541V101.305C626.486 100.844 627.684 100.671 629.072 100.671H637.207L637.964 101.997V100.671H643.955L644.838 101.997V100.671H650.702V111.966H644.775L643.64 110.238V111.966H636.261L635.442 110.122H633.612L632.793 111.966H628.946C627.433 111.966 626.297 111.62 625.541 111.275V111.966H616.397V109.373C616.397 109.027 616.334 108.969 616.082 108.969H615.767V111.966H598.109V110.525L597.479 111.966H593.758L593.128 110.583V111.966H586.002L585.245 110.122H583.416L582.596 111.966H578.939V146.024H654.171V125.335C653.351 125.681 652.216 125.854 651.081 125.854H645.594V125.162C644.964 125.624 643.828 125.854 642.757 125.854H625.478V123.261C625.478 122.915 625.415 122.915 625.099 122.915H624.784V125.854H619.109V122.8C618.163 123.203 617.091 123.203 616.145 123.203H615.514V125.854H608.578L606.938 124.125L605.11 125.854H593.947V114.56H605.298L606.938 116.288L608.704 114.56H616.334C617.216 114.56 618.667 114.674 619.298 115.25V114.56H626.108C626.802 114.56 628.127 114.674 629.009 115.25V114.56H639.288V115.251C639.856 114.79 640.928 114.56 641.874 114.56H647.612V115.251C648.243 114.848 649.126 114.56 650.261 114.56H654.171V76.9863Z" fill="#0077A6"/>
</svg>
