<svg width="17" height="21" viewBox="0 0 17 21" fill="none" xmlns="http://www.w3.org/2000/svg">
<path fill-rule="evenodd" clip-rule="evenodd" d="M0.0090332 8.954C0.0090332 4.4177 3.79976 0.751221 8.38499 0.751221C12.9832 0.751221 16.774 4.4177 16.774 8.954C16.774 11.2399 15.9426 13.362 14.5743 15.1608C13.0648 17.1449 11.2043 18.8736 9.10992 20.2305C8.63064 20.5441 8.19811 20.5678 7.67199 20.2305C5.56586 18.8736 3.7053 17.1449 2.20869 15.1608C0.839371 13.362 0.0090332 11.2399 0.0090332 8.954ZM5.62453 9.20942C5.62453 10.729 6.86461 11.9243 8.38499 11.9243C9.90646 11.9243 11.1585 10.729 11.1585 9.20942C11.1585 7.70157 9.90646 6.44817 8.38499 6.44817C6.86461 6.44817 5.62453 7.70157 5.62453 9.20942Z" fill="#F85E9F"/>
</svg>
