<svg width="212" height="162" viewBox="0 0 212 162" fill="none" xmlns="http://www.w3.org/2000/svg">
<g filter="url(#filter0_dd_2033_1522)">
<rect x="31" width="149.673" height="55.2256" rx="27.6128" fill="#F2EF9C"/>
<path fill-rule="evenodd" clip-rule="evenodd" d="M66.009 25.9538C66.009 21.4175 69.7997 17.751 74.3849 17.751C78.9832 17.751 82.7739 21.4175 82.7739 25.9538C82.7739 28.2396 81.9426 30.3618 80.5742 32.1605C79.0647 34.1446 77.2042 35.8734 75.1099 37.2302C74.6306 37.5438 74.198 37.5675 73.6719 37.2302C71.5658 35.8734 69.7052 34.1446 68.2086 32.1605C66.8393 30.3618 66.009 28.2396 66.009 25.9538ZM71.6245 26.2092C71.6245 27.7288 72.8645 28.924 74.3849 28.924C75.9064 28.924 77.1584 27.7288 77.1584 26.2092C77.1584 24.7013 75.9064 23.4479 74.3849 23.4479C72.8645 23.4479 71.6245 24.7013 71.6245 26.2092Z" fill="#FACD49"/>
<path d="M101.626 22.4759V24.036H99.0577V32.1128H97.1248V24.036H94.5569V22.4759H101.626ZM106.432 32.2371C105.696 32.2371 105.033 32.076 104.444 31.7538C103.855 31.4225 103.39 30.9577 103.05 30.3594C102.718 29.7611 102.553 29.0708 102.553 28.2884C102.553 27.5061 102.723 26.8157 103.064 26.2175C103.413 25.6192 103.887 25.159 104.486 24.8368C105.084 24.5055 105.751 24.3398 106.488 24.3398C107.224 24.3398 107.891 24.5055 108.49 24.8368C109.088 25.159 109.557 25.6192 109.898 26.2175C110.248 26.8157 110.422 27.5061 110.422 28.2884C110.422 29.0708 110.243 29.7611 109.884 30.3594C109.534 30.9577 109.056 31.4225 108.448 31.7538C107.85 32.076 107.178 32.2371 106.432 32.2371ZM106.432 30.5527C106.782 30.5527 107.109 30.4698 107.413 30.3042C107.726 30.1293 107.974 29.8716 108.158 29.531C108.342 29.1904 108.434 28.7762 108.434 28.2884C108.434 27.5613 108.241 27.0044 107.854 26.6178C107.477 26.2221 107.012 26.0242 106.46 26.0242C105.908 26.0242 105.443 26.2221 105.066 26.6178C104.697 27.0044 104.513 27.5613 104.513 28.2884C104.513 29.0156 104.693 29.577 105.052 29.9728C105.42 30.3594 105.88 30.5527 106.432 30.5527ZM113.773 25.5686C114.022 25.2188 114.362 24.9289 114.795 24.6987C115.237 24.4594 115.738 24.3398 116.3 24.3398C116.953 24.3398 117.542 24.5009 118.067 24.823C118.601 25.1452 119.02 25.6054 119.323 26.2036C119.636 26.7927 119.793 27.4784 119.793 28.2608C119.793 29.0432 119.636 29.7381 119.323 30.3456C119.02 30.9438 118.601 31.4087 118.067 31.74C117.542 32.0714 116.953 32.2371 116.3 32.2371C115.738 32.2371 115.241 32.122 114.809 31.8919C114.385 31.6618 114.04 31.3718 113.773 31.0221V35.7577H111.84V24.464H113.773V25.5686ZM117.819 28.2608C117.819 27.8006 117.722 27.4048 117.529 27.0735C117.344 26.7329 117.096 26.4752 116.783 26.3003C116.479 26.1254 116.148 26.038 115.789 26.038C115.439 26.038 115.108 26.13 114.795 26.3141C114.491 26.489 114.243 26.7467 114.049 27.0873C113.865 27.4278 113.773 27.8282 113.773 28.2884C113.773 28.7486 113.865 29.149 114.049 29.4896C114.243 29.8301 114.491 30.0925 114.795 30.2765C115.108 30.4514 115.439 30.5389 115.789 30.5389C116.148 30.5389 116.479 30.4468 116.783 30.2627C117.096 30.0786 117.344 29.8163 117.529 29.4758C117.722 29.1352 117.819 28.7302 117.819 28.2608ZM129.955 27.1701C130.498 27.2713 130.944 27.5429 131.294 27.9847C131.644 28.4265 131.818 28.9327 131.818 29.5034C131.818 30.0188 131.69 30.4744 131.432 30.8702C131.183 31.2568 130.82 31.5605 130.341 31.7814C129.863 32.0023 129.296 32.1128 128.643 32.1128H124.487V22.4759H128.463C129.117 22.4759 129.678 22.5818 130.148 22.7935C130.626 23.0052 130.985 23.2997 131.225 23.6771C131.473 24.0544 131.598 24.4824 131.598 24.9611C131.598 25.5225 131.446 25.9919 131.142 26.3693C130.847 26.7467 130.452 27.0136 129.955 27.1701ZM126.42 26.4522H128.187C128.648 26.4522 129.002 26.3509 129.25 26.1484C129.499 25.9367 129.623 25.6376 129.623 25.251C129.623 24.8644 129.499 24.5653 129.25 24.3536C129.002 24.1419 128.648 24.036 128.187 24.036H126.42V26.4522ZM128.367 30.5389C128.836 30.5389 129.2 30.4284 129.458 30.2075C129.724 29.9866 129.858 29.6737 129.858 29.2687C129.858 28.8545 129.72 28.5323 129.444 28.3022C129.168 28.0629 128.795 27.9433 128.325 27.9433H126.42V30.5389H128.367ZM140.58 24.464V32.1128H138.633V31.1463C138.384 31.4777 138.058 31.74 137.653 31.9333C137.257 32.1174 136.824 32.2094 136.355 32.2094C135.757 32.2094 135.227 32.0852 134.767 31.8367C134.307 31.5789 133.943 31.2062 133.676 30.7183C133.419 30.2213 133.29 29.6322 133.29 28.9511V24.464H135.223V28.675C135.223 29.2825 135.375 29.7519 135.678 30.0833C135.982 30.4054 136.396 30.5665 136.921 30.5665C137.455 30.5665 137.874 30.4054 138.177 30.0833C138.481 29.7519 138.633 29.2825 138.633 28.675V24.464H140.58ZM145.414 32.2371C144.788 32.2371 144.226 32.1266 143.729 31.9057C143.232 31.6756 142.837 31.3672 142.542 30.9807C142.257 30.5941 142.1 30.1661 142.073 29.6967H144.019C144.056 29.9912 144.199 30.2351 144.447 30.4284C144.705 30.6217 145.023 30.7183 145.4 30.7183C145.768 30.7183 146.053 30.6447 146.256 30.4974C146.468 30.3502 146.573 30.1615 146.573 29.9314C146.573 29.6829 146.445 29.4988 146.187 29.3791C145.938 29.2503 145.538 29.1122 144.986 28.9649C144.415 28.8269 143.946 28.6842 143.577 28.5369C143.219 28.3897 142.906 28.1642 142.639 27.8604C142.381 27.5567 142.252 27.1471 142.252 26.6316C142.252 26.2083 142.372 25.8217 142.611 25.4719C142.86 25.1221 143.209 24.846 143.66 24.6435C144.121 24.441 144.659 24.3398 145.276 24.3398C146.187 24.3398 146.914 24.5699 147.457 25.0301C148 25.4811 148.299 26.0932 148.355 26.8664H146.504C146.477 26.5626 146.348 26.3233 146.118 26.1484C145.897 25.9643 145.598 25.8723 145.22 25.8723C144.871 25.8723 144.599 25.9367 144.406 26.0656C144.222 26.1944 144.13 26.3739 144.13 26.604C144.13 26.8618 144.259 27.0596 144.516 27.1977C144.774 27.3266 145.174 27.46 145.717 27.5981C146.27 27.7362 146.725 27.8788 147.084 28.0261C147.443 28.1734 147.752 28.4035 148.009 28.7164C148.276 29.0202 148.414 29.4251 148.424 29.9314C148.424 30.3732 148.299 30.769 148.051 31.1187C147.811 31.4685 147.462 31.7446 147.001 31.9471C146.55 32.1404 146.021 32.2371 145.414 32.2371Z" fill="#393E46"/>
</g>
<defs>
<filter id="filter0_dd_2033_1522" x="0.428658" y="0" width="210.815" height="161.732" filterUnits="userSpaceOnUse" color-interpolation-filters="sRGB">
<feFlood flood-opacity="0" result="BackgroundImageFix"/>
<feColorMatrix in="SourceAlpha" type="matrix" values="0 0 0 0 0 0 0 0 0 0 0 0 0 0 0 0 0 0 127 0" result="hardAlpha"/>
<feOffset dy="42.4054"/>
<feGaussianBlur stdDeviation="12.8202"/>
<feColorMatrix type="matrix" values="0 0 0 0 0 0 0 0 0 0 0 0 0 0 0 0 0 0 0.05 0"/>
<feBlend mode="normal" in2="BackgroundImageFix" result="effect1_dropShadow_2033_1522"/>
<feColorMatrix in="SourceAlpha" type="matrix" values="0 0 0 0 0 0 0 0 0 0 0 0 0 0 0 0 0 0 127 0" result="hardAlpha"/>
<feOffset dy="75.9353"/>
<feGaussianBlur stdDeviation="15.2857"/>
<feColorMatrix type="matrix" values="0 0 0 0 0 0 0 0 0 0 0 0 0 0 0 0 0 0 0.01 0"/>
<feBlend mode="normal" in2="effect1_dropShadow_2033_1522" result="effect2_dropShadow_2033_1522"/>
<feBlend mode="normal" in="SourceGraphic" in2="effect2_dropShadow_2033_1522" result="shape"/>
</filter>
</defs>
</svg>
