<svg width="233" height="162" viewBox="0 0 233 162" fill="none" xmlns="http://www.w3.org/2000/svg">
<g filter="url(#filter0_dd_2033_1526)">
<rect x="31" width="170.673" height="55.2256" rx="27.6128" fill="#F2EF9C"/>
<path fill-rule="evenodd" clip-rule="evenodd" d="M66.009 25.954C66.009 21.4177 69.7998 17.7512 74.385 17.7512C78.9832 17.7512 82.774 21.4177 82.774 25.954C82.774 28.2399 81.9426 30.362 80.5743 32.1608C79.0648 34.1449 77.2043 35.8736 75.1099 37.2305C74.6306 37.5441 74.1981 37.5678 73.672 37.2305C71.5659 35.8736 69.7053 34.1449 68.2087 32.1608C66.8394 30.362 66.009 28.2399 66.009 25.954ZM71.6245 26.2094C71.6245 27.729 72.8646 28.9243 74.385 28.9243C75.9065 28.9243 77.1585 27.729 77.1585 26.2094C77.1585 24.7016 75.9065 23.4482 74.385 23.4482C72.8646 23.4482 71.6245 24.7016 71.6245 26.2094Z" fill="#F85E9F"/>
<path d="M101.626 22.4759V24.036H99.0577V32.1128H97.1248V24.036H94.5568V22.4759H101.626ZM106.432 32.2371C105.696 32.2371 105.033 32.076 104.444 31.7538C103.855 31.4225 103.39 30.9577 103.05 30.3594C102.718 29.7611 102.553 29.0708 102.553 28.2884C102.553 27.5061 102.723 26.8157 103.064 26.2175C103.413 25.6192 103.887 25.159 104.486 24.8368C105.084 24.5055 105.751 24.3398 106.488 24.3398C107.224 24.3398 107.891 24.5055 108.49 24.8368C109.088 25.159 109.557 25.6192 109.898 26.2175C110.248 26.8157 110.422 27.5061 110.422 28.2884C110.422 29.0708 110.243 29.7611 109.884 30.3594C109.534 30.9577 109.056 31.4225 108.448 31.7538C107.85 32.076 107.178 32.2371 106.432 32.2371ZM106.432 30.5527C106.782 30.5527 107.109 30.4698 107.413 30.3042C107.726 30.1293 107.974 29.8716 108.158 29.531C108.342 29.1904 108.434 28.7762 108.434 28.2884C108.434 27.5613 108.241 27.0044 107.854 26.6178C107.477 26.2221 107.012 26.0242 106.46 26.0242C105.908 26.0242 105.443 26.2221 105.066 26.6178C104.697 27.0044 104.513 27.5613 104.513 28.2884C104.513 29.0156 104.693 29.577 105.052 29.9728C105.42 30.3594 105.88 30.5527 106.432 30.5527ZM113.773 25.5686C114.022 25.2188 114.362 24.9289 114.795 24.6987C115.237 24.4594 115.738 24.3398 116.3 24.3398C116.953 24.3398 117.542 24.5009 118.067 24.823C118.601 25.1452 119.02 25.6054 119.323 26.2036C119.636 26.7927 119.793 27.4784 119.793 28.2608C119.793 29.0432 119.636 29.7381 119.323 30.3456C119.02 30.9438 118.601 31.4087 118.067 31.74C117.542 32.0714 116.953 32.2371 116.3 32.2371C115.738 32.2371 115.241 32.122 114.809 31.8919C114.385 31.6618 114.04 31.3718 113.773 31.0221V35.7577H111.84V24.464H113.773V25.5686ZM117.818 28.2608C117.818 27.8006 117.722 27.4048 117.529 27.0735C117.344 26.7329 117.096 26.4752 116.783 26.3003C116.479 26.1254 116.148 26.038 115.789 26.038C115.439 26.038 115.108 26.13 114.795 26.3141C114.491 26.489 114.243 26.7467 114.049 27.0873C113.865 27.4278 113.773 27.8282 113.773 28.2884C113.773 28.7486 113.865 29.149 114.049 29.4896C114.243 29.8301 114.491 30.0925 114.795 30.2765C115.108 30.4514 115.439 30.5389 115.789 30.5389C116.148 30.5389 116.479 30.4468 116.783 30.2627C117.096 30.0786 117.344 29.8163 117.529 29.4758C117.722 29.1352 117.818 28.7302 117.818 28.2608ZM131.515 25.4581C131.515 25.9735 131.39 26.4568 131.142 26.9078C130.903 27.3588 130.521 27.7224 129.996 27.9985C129.48 28.2746 128.827 28.4127 128.035 28.4127H126.42V32.1128H124.487V22.4759H128.035C128.781 22.4759 129.416 22.6048 129.941 22.8625C130.465 23.1202 130.857 23.4746 131.114 23.9256C131.381 24.3766 131.515 24.8874 131.515 25.4581ZM127.953 26.8525C128.486 26.8525 128.882 26.7329 129.14 26.4936C129.398 26.2451 129.526 25.8999 129.526 25.4581C129.526 24.5193 129.002 24.0498 127.953 24.0498H126.42V26.8525H127.953ZM134.82 21.896V32.1128H132.887V21.896H134.82ZM136.233 28.2608C136.233 27.4876 136.384 26.8019 136.688 26.2036C137.001 25.6054 137.42 25.1452 137.945 24.823C138.478 24.5009 139.072 24.3398 139.726 24.3398C140.296 24.3398 140.793 24.4548 141.217 24.6849C141.649 24.915 141.994 25.205 142.252 25.5547V24.464H144.199V32.1128H142.252V30.9945C142.004 31.3534 141.658 31.6526 141.217 31.8919C140.784 32.122 140.282 32.2371 139.712 32.2371C139.067 32.2371 138.478 32.0714 137.945 31.74C137.42 31.4087 137.001 30.9438 136.688 30.3456C136.384 29.7381 136.233 29.0432 136.233 28.2608ZM142.252 28.2884C142.252 27.819 142.16 27.4186 141.976 27.0873C141.792 26.7467 141.543 26.489 141.23 26.3141C140.918 26.13 140.582 26.038 140.223 26.038C139.864 26.038 139.532 26.1254 139.229 26.3003C138.925 26.4752 138.676 26.7329 138.483 27.0735C138.299 27.4048 138.207 27.8006 138.207 28.2608C138.207 28.721 138.299 29.126 138.483 29.4758C138.676 29.8163 138.925 30.0786 139.229 30.2627C139.541 30.4468 139.873 30.5389 140.223 30.5389C140.582 30.5389 140.918 30.4514 141.23 30.2765C141.543 30.0925 141.792 29.8347 141.976 29.5034C142.16 29.1628 142.252 28.7578 142.252 28.2884ZM145.59 28.2884C145.59 27.4968 145.751 26.8065 146.073 26.2175C146.395 25.6192 146.841 25.159 147.412 24.8368C147.983 24.5055 148.636 24.3398 149.373 24.3398C150.321 24.3398 151.103 24.5791 151.72 25.0577C152.346 25.5271 152.764 26.1898 152.976 27.0458H150.891C150.781 26.7145 150.592 26.4568 150.325 26.2727C150.067 26.0794 149.745 25.9827 149.359 25.9827C148.807 25.9827 148.369 26.1852 148.047 26.5902C147.725 26.986 147.564 27.5521 147.564 28.2884C147.564 29.0156 147.725 29.5816 148.047 29.9866C148.369 30.3824 148.807 30.5803 149.359 30.5803C150.141 30.5803 150.652 30.2305 150.891 29.531H152.976C152.764 30.3594 152.346 31.0175 151.72 31.5053C151.094 31.9931 150.311 32.2371 149.373 32.2371C148.636 32.2371 147.983 32.076 147.412 31.7538C146.841 31.4225 146.395 30.9623 146.073 30.3732C145.751 29.7749 145.59 29.08 145.59 28.2884ZM161.502 28.1227C161.502 28.3989 161.484 28.6474 161.447 28.8683H155.856C155.902 29.4205 156.095 29.8531 156.435 30.1661C156.776 30.479 157.195 30.6355 157.692 30.6355C158.41 30.6355 158.921 30.3272 159.224 29.7105H161.309C161.088 30.4468 160.665 31.0543 160.039 31.5329C159.413 32.0023 158.644 32.2371 157.733 32.2371C156.997 32.2371 156.334 32.076 155.745 31.7538C155.165 31.4225 154.71 30.9577 154.378 30.3594C154.056 29.7611 153.895 29.0708 153.895 28.2884C153.895 27.4968 154.056 26.8019 154.378 26.2036C154.7 25.6054 155.151 25.1452 155.731 24.823C156.311 24.5009 156.978 24.3398 157.733 24.3398C158.46 24.3398 159.109 24.4963 159.68 24.8092C160.26 25.1221 160.706 25.5686 161.019 26.1484C161.341 26.7191 161.502 27.3772 161.502 28.1227ZM159.5 27.5705C159.491 27.0735 159.312 26.6777 158.962 26.3831C158.612 26.0794 158.184 25.9275 157.678 25.9275C157.199 25.9275 156.794 26.0748 156.463 26.3693C156.141 26.6547 155.943 27.055 155.869 27.5705H159.5ZM165.84 32.2371C165.214 32.2371 164.653 32.1266 164.156 31.9057C163.659 31.6756 163.263 31.3672 162.968 30.9807C162.683 30.5941 162.527 30.1661 162.499 29.6967H164.446C164.483 29.9912 164.625 30.2351 164.874 30.4284C165.131 30.6217 165.449 30.7183 165.826 30.7183C166.195 30.7183 166.48 30.6447 166.682 30.4974C166.894 30.3502 167 30.1615 167 29.9314C167 29.6829 166.871 29.4988 166.613 29.3791C166.365 29.2503 165.964 29.1122 165.412 28.9649C164.842 28.8269 164.372 28.6842 164.004 28.5369C163.645 28.3897 163.332 28.1642 163.065 27.8604C162.807 27.5567 162.678 27.1471 162.678 26.6316C162.678 26.2083 162.798 25.8217 163.037 25.4719C163.286 25.1221 163.636 24.846 164.087 24.6435C164.547 24.441 165.085 24.3398 165.702 24.3398C166.613 24.3398 167.34 24.5699 167.884 25.0301C168.427 25.4811 168.726 26.0932 168.781 26.8664H166.931C166.903 26.5626 166.774 26.3233 166.544 26.1484C166.323 25.9643 166.024 25.8723 165.647 25.8723C165.297 25.8723 165.026 25.9367 164.832 26.0656C164.648 26.1944 164.556 26.3739 164.556 26.604C164.556 26.8618 164.685 27.0596 164.943 27.1977C165.2 27.3266 165.601 27.46 166.144 27.5981C166.696 27.7362 167.152 27.8788 167.511 28.0261C167.87 28.1734 168.178 28.4035 168.436 28.7164C168.703 29.0202 168.841 29.4251 168.85 29.9314C168.85 30.3732 168.726 30.769 168.477 31.1187C168.238 31.4685 167.888 31.7446 167.428 31.9471C166.977 32.1404 166.448 32.2371 165.84 32.2371Z" fill="#393E46"/>
</g>
<defs>
<filter id="filter0_dd_2033_1526" x="0.428658" y="0" width="231.815" height="161.732" filterUnits="userSpaceOnUse" color-interpolation-filters="sRGB">
<feFlood flood-opacity="0" result="BackgroundImageFix"/>
<feColorMatrix in="SourceAlpha" type="matrix" values="0 0 0 0 0 0 0 0 0 0 0 0 0 0 0 0 0 0 127 0" result="hardAlpha"/>
<feOffset dy="42.4054"/>
<feGaussianBlur stdDeviation="12.8202"/>
<feColorMatrix type="matrix" values="0 0 0 0 0 0 0 0 0 0 0 0 0 0 0 0 0 0 0.05 0"/>
<feBlend mode="normal" in2="BackgroundImageFix" result="effect1_dropShadow_2033_1526"/>
<feColorMatrix in="SourceAlpha" type="matrix" values="0 0 0 0 0 0 0 0 0 0 0 0 0 0 0 0 0 0 127 0" result="hardAlpha"/>
<feOffset dy="75.9353"/>
<feGaussianBlur stdDeviation="15.2857"/>
<feColorMatrix type="matrix" values="0 0 0 0 0 0 0 0 0 0 0 0 0 0 0 0 0 0 0.01 0"/>
<feBlend mode="normal" in2="effect1_dropShadow_2033_1526" result="effect2_dropShadow_2033_1526"/>
<feBlend mode="normal" in="SourceGraphic" in2="effect2_dropShadow_2033_1526" result="shape"/>
</filter>
</defs>
</svg>
